<?xml version="1.0" encoding="utf-8"?>
<!-- Generator: Adobe Illustrator 19.0.0, SVG Export Plug-In . SVG Version: 6.00 Build 0)  -->
<svg version="1.1" id="Calque_1" xmlns="http://www.w3.org/2000/svg" xmlns:xlink="http://www.w3.org/1999/xlink" x="0px" y="0px" width="22px" height="20px"
	 viewBox="0 0 22 20" style="enable-background:new 0 0 22 20;" xml:space="preserve">
<g>
	<path d="M0.9,14.8l7.9-7.9c1.2-1.2,3.1-1.2,4.3,0c1.2,1.2,1.2,3.1,0,4.3l-7.9,7.9c-1.2,1.2-3.1,1.2-4.3,0
		C-0.3,17.9-0.3,16,0.9,14.8z"/>
	<path d="M13.2,6.9l7.9,7.9c1.2,1.2,1.2,3.1,0,4.3c-1.2,1.2-3.1,1.2-4.3,0l-7.9-7.9c-1.2-1.2-1.2-3.1,0-4.3
		C10,5.7,12,5.7,13.2,6.9z"/>
	<path d="M3.5,0l15.2,0c1.7,0,3.1,1.4,3.1,3c0,1.7-1.4,3-3.1,3l-15.2,0c-1.7,0-3.1-1.4-3.1-3C0.4,1.4,1.8,0,3.5,0z"/>
</g>
</svg>
