<?xml version="1.0" encoding="utf-8"?>
<!-- Generator: Adobe Illustrator 19.0.0, SVG Export Plug-In . SVG Version: 6.00 Build 0)  -->
<svg version="1.1" id="Calque_1" xmlns="http://www.w3.org/2000/svg" xmlns:xlink="http://www.w3.org/1999/xlink" x="0px" y="0px" width="720" height="49"
	 viewBox="0 0 720 49" style="enable-background:new 0 0 720 49;" xml:space="preserve">
<style type="text/css">
	.st0{fill-rule:evenodd;clip-rule:evenodd;fill:#E9E5CC;}
	.st1{fill:#E9E5CC;}
</style>
<g>
	<path class="st0" d="M80.5,14.6h-1.4l-6.2,4.6c0,0-1,1.6-2.8,1.6h-3.5c0,0-3,0.2-3,3.1v3.2c0,0-0.4,3.1,3.1,3.1h3.1
		c0,0,2.1,0.4,3.2,1.6l6.1,4.6l1.5,0.2c0,0,1.6,0,1.6-1.6V16.1C82.2,16.1,82.1,14.6,80.5,14.6"/>
	<path class="st0" d="M99.5,45.6c4.7-5.4,7.6-12.5,7.6-20.3c0-7.8-2.9-14.9-7.6-20.3l-2.3,2.9c4.1,4.6,6.7,10.7,6.7,17.4
		c0,6.7-2.5,12.8-6.7,17.4L99.5,45.6z"/>
	<path class="st0" d="M93.3,40.1c3.7-3.8,5.9-9,5.9-14.8c0-5.6-2.2-10.8-5.7-14.6l-2,2.9c2.9,3,4.8,7.1,4.8,11.7
		c0,4.6-1.9,8.8-4.9,11.9L93.3,40.1z"/>
	<path class="st0" d="M87.6,33.9c2.3-2.1,3.8-5.2,3.8-8.6c0-3.5-1.5-6.6-3.9-8.7l-1.6,3.3c1.5,1.3,2.5,3.3,2.5,5.4
		c0,2.4-1.9,4.5-3.7,5.8L87.6,33.9z"/>
	<path class="st0" d="M240.3,27.2c0,0,12-9.9,14.8-12.8c-4-5.4-9.5-7.6-15.1-7.6c-10.7,0-19.4,8.8-19.4,19.6
		c0,10.8,8.7,19.6,19.4,19.6c5.7,0,11.9-3.2,15.4-7.8C253.4,36.7,240.3,27.2,240.3,27.2 M243,12.9c1.3,0,2.4,1.1,2.4,2.4
		c0,1.3-1.1,2.4-2.4,2.4c-1.3,0-2.4-1.1-2.4-2.4C240.6,14,241.7,12.9,243,12.9"/>
	<path class="st0" d="M307.3,34.1c1.9,0.9,3.4,0.7,5.7,0.7c8.1,0,14.6-6.6,14.6-14.8c0-4.8-1.9-8.7-5.3-11.4c0,0,0.2-1.5,1.2-3.2
		c4.4,3.3,7.3,8.5,7.3,14.4c0,9.9-8.1,18.3-17.8,18.3c-2.6,0-5-0.6-7.2-1.6L307.3,34.1z M303.9,35.5c-0.8-0.5-1.1-0.7-1.8-1.3
		c-1.2-0.9-2.3,0-2.3,0c-0.7,0.7,0.2,1.7,0.2,1.7c3,2.6,6.7,4.5,10.8,5c0,1.7,0.1,3.2,0.1,3.2l-3.2,3.3c-2.8,1.5-0.2,1.6-0.2,1.6
		l11.5-0.1c2.1,0-0.1-1.5-0.1-1.5l-3.7-3.2c0,0,0.1-1.4,0.1-3.1c10.3-1.1,18.3-10.5,18.3-21.2c0-9.2-5.9-16.9-14-19.6
		c-1.9-0.6-1.8,1.1-1.8,1.1c0,1.4,0.8,1.5,0.8,1.5c0.9,0.3,1.9,0.7,2.7,1.2l-1.1,3.2c-2-1.1-4.7-2-7.2-2c-8.1,0-14.6,6.6-14.6,14.8
		c0,5.4,3,10.4,7.2,13L303.9,35.5z"/>
	<path class="st0" d="M475.6,30.2c0.5,0,0.8,0.4,0.8,0.8c0,0.5-0.4,0.8-0.8,0.8c-0.5,0-0.8-0.4-0.8-0.8
		C474.8,30.6,475.1,30.2,475.6,30.2"/>
	<path class="st0" d="M496.3,40l0-22.1l-9,4.7l-1.8,0l0-1.9c0,0,0.2-2.9-2.6-2.9l-0.4-1.5c0,0,0.6-9.6-9.2-9.6c0,0-8.6,0.4-8.6,9.5
		c0,0,0.4-9.8-9-9.5c0,0-8.6-0.5-8.6,9.4c0,0-0.2,3.8,3.1,6.2v17.3c0,0,0.5,3,3,3l29.6,0c0,0,2.7-0.1,2.7-2.6l0-5.4l1.9,0L496.3,40z
		 M451.7,16.4c0-2.7,1.8-4.9,4.5-4.9c2.6,0,4.7,2.1,4.7,4.8c0,0.7-0.1,0.8-0.3,1.5h8.3c-0.3-0.6-0.2-0.7-0.2-1.4
		c0-2.7,2.1-4.8,4.7-4.8c2.6,0,4.6,2.3,4.6,4.9c0,2.7-2,4.5-4.7,4.5c-0.8,0-2.1-0.1-2.1-0.1h-13c0,0-1,0.1-1.8,0.1
		C453.7,20.9,451.7,19.1,451.7,16.4 M461.7,36.6c-3,0-5.5-2.4-5.5-5.5c0-3.1,2.4-5.5,5.5-5.5c3,0,5.4,2.5,5.4,5.5
		C467.1,34.2,464.7,36.6,461.7,36.6 M475.6,36.6c-3,0-5.5-2.4-5.5-5.5c0-3.1,2.4-5.5,5.5-5.5c3,0,5.4,2.5,5.4,5.5
		C481,34.2,478.6,36.6,475.6,36.6"/>
	<path class="st0" d="M461.7,30.2c0.5,0,0.8,0.4,0.8,0.8c0,0.5-0.4,0.8-0.8,0.8c-0.5,0-0.8-0.4-0.8-0.8
		C460.9,30.6,461.3,30.2,461.7,30.2"/>
	<path class="st0" d="M600.7,13.5c2.2,0,3.9,2.5,3.9,5.5c0,2.6-1.3,4.8-3.1,5.4c-0.1,0,0,14.8,0,14.8s0,0.9-0.8,0.9
		c-0.7,0-0.7-0.9-0.7-0.9s0.2-14.7,0-14.7c-1.8-0.5-3.1-2.7-3.1-5.4C596.8,15.9,598.5,13.5,600.7,13.5"/>
	<path class="st0" d="M641.6,39.3c0,0.4,0.3,0.8,0.8,0.8c0.4,0,0.8-0.3,0.8-0.8v-18h1.5c0,0,1.5,0.1,1.5-3.2v-4.7l-1.2,4.7h-1.9
		l-0.7-4.7l-0.8,4.7H640l-1.5-4.7l-0.1,4.6c0,0-0.1,3.2,1.6,3.2h1.5V39.3z"/>
	<path class="st0" d="M621.5,10.4c8.5,0,15.4,7,15.4,15.6c0,8.6-6.9,15.6-15.4,15.6c-8.5,0-15.4-7-15.4-15.6
		C606.1,17.3,613,10.4,621.5,10.4"/>
	<path class="st1" d="M12.1,9.4V42c0,1.1-0.9,2-2,2H4.6c-1.1,0-2-0.9-2-2V9.4H12.1 M14.7,6.7H0V42c0,2.6,2.1,4.7,4.6,4.7H10
		c2.5,0,4.6-2.1,4.6-4.7V6.7z"/>
	<path class="st1" d="M23.8,9.4V42c0,1.1-0.9,2-2,2h-5.4c-1.1,0-2-0.9-2-2V9.4H23.8 M26.4,6.7H11.7V42c0,2.6,2.1,4.7,4.6,4.7h5.4
		c2.6,0,4.6-2.1,4.6-4.7V6.7z"/>
	<path class="st1" d="M35.5,9.4V42c0,1.1-0.9,2-2,2h-5.4c-1.1,0-2-0.9-2-2V9.4H35.5 M38.1,6.7H23.5V42c0,2.6,2.1,4.7,4.6,4.7h5.4
		c2.6,0,4.6-2.1,4.6-4.7V6.7z"/>
	<path class="st1" d="M17.6,36H8.5V8h9.2V36z"/>
	<path class="st1" d="M29.7,36h-9.2V8h9.2V36z"/>
	<path class="st1" d="M674.7,35.9c0.2-0.7,0.3-1.2,0.4-1.5c0,0,0-0.6-0.1-1.6c0-0.6,0.1-1.1,0.2-1.5c-0.2,0.1-0.4,0.2-0.6,0.4
		c-0.2,0.1-0.4,0.2-0.6,0.1c0.6-0.4,1.2-1.1,1.8-2.3c0.6-1.2,1.1-1.9,1.5-2.3c-0.1,0-0.2,0.1-0.3,0.2c-0.1,0.1-0.2,0.2-0.3,0.2
		c0.3-1.4,1.4-2.3,3.4-2.6c0.8,0,1.6-0.5,2.5-1.4c0.9-0.9,1.6-1.4,2.2-1.6c1.1-0.5,2.5-0.8,4.1-0.9c2.7-1.3,4.3-2.1,4.9-2.6
		c5.3-3.7,5.3-3.3,6.7-6.3c-0.2,0.5-0.5,0.1-0.8,0c0.9,0.2,1.1-1,1.4-1.1c0.5-0.4,1.2-0.7,2.2-1c1-0.3,1.7-0.6,2.1-0.9
		c-0.3-0.1-0.6-0.2-0.8-0.1c0.5-0.4,1.4-0.7,2.5-0.8c1.3-0.2,2.1-0.4,2.6-0.6c-0.2-0.3-0.3-0.7-0.2-1.2c0.1-0.8,0.2-1.1,0.2-1.1
		c-0.1-0.5-0.2-0.6-0.2-0.6c0.8,0.2,1.3,0.8,1.5,1.8c0.1,0.4,0.4,0.7,1,0.8l1.8-2c0.1,0.2,0.2,0.4,0.2,0.6c0,0.2-0.1,0.5-0.3,0.9
		c-0.2,0.3-0.3,0.6-0.5,0.9c-0.1,0.2,0.1,0.4,0.4,0.6c0.3,0.2,0.5,0.3,0.5,0.4c0.8-0.3,1.7-0.8,2.8-1.7c1.5-1.1,2.8-2.2,3.1-1.8
		c0.4,0.4-1.2,1.8-2.4,2.8c-1.3,1.2-2.2,2-2.6,2.5c0.5,0.9,0.8,1.2,0.9,1.3l-0.5,0.1c0.1,0.3,0.6,1.2,1.3,2.7c0.6,1.1,0.9,2,1,2.8
		c-0.4,0.7-0.6,1-0.6,1c-0.1,0.4-0.5,0.6-1,0.7h-1.3c-0.4-0.1-0.7-0.3-0.9-0.8c-0.3-0.6-0.5-0.9-0.6-1c-1-0.8-1.6-1.1-1.9-1.1
		c-0.2,0-0.4,0.1-0.6,0.2c-0.1-0.2-0.3-0.4-0.6-0.6c-0.3-0.2-0.5-0.5-0.6-0.7c-0.9,1.2-1.5,2.1-1.9,2.8c-0.5,0.3-0.6,1.1-0.4,2.3
		c0.5,0.8,0.7,1.6,0.7,2.5c0,0.6-0.2,1.2-0.5,1.7c0,0.1-0.1,0.2-0.2,0.3c-0.1,0.1-0.1,0.2-0.1,0.3c0.6,0,1.2-0.1,1.6-0.3
		c1-0.1,1.8,0.5,2.3,1.8c-0.4,1.4-0.7,2.4-0.9,3.1c-0.2,0.3-0.4,0.8-0.4,1.5c0,0.8,0,1.4-0.1,1.6c-0.3,0.3-0.5,0.8-0.7,1.4
		c-0.2,0.7-0.4,1.1-0.6,1.4c-0.9,0.6-1.8,0.7-2.5,0.4c-0.1-0.2-0.1-0.8-0.1-1.7c-0.6,0-1.1,0-1.3,0.1l-0.1-1.2
		c0.5-0.8,0.9-1.4,1.1-1.9c0.6-0.1,1.1-0.1,1.4,0.1c0.4-0.2,0.6-0.4,0.6-0.5c-0.2-1.3-0.4-2.2-0.6-2.8c-0.4,0.3-1.1,0.6-2.2,0.9
		c-1.1,0.3-1.8,0.6-2.3,1c-0.4,0.1-1.1,0.3-1.9,0.7c-0.8,0.4-1.5,0.6-2,0.6c-1.2,0.2-2.1,0.3-2.7,0.3c-1.6,0.5-2.9,0.9-3.7,1.1
		c0,0.5,0,1.1-0.1,1.6c-0.1,0.6-0.3,1-0.6,1.3c-0.6,0.5-1.6,1-2.8,1.4c-1.4,0.5-2.4,0.9-2.9,1.2c-0.9,0.2-1.4,0.4-1.4,0.4
		c-0.2,0.5-0.3,1.3-0.3,2.4c0,1.2-0.1,2-0.3,2.4c-0.4,0.1-0.7,0.5-0.9,1c-0.2,0.6-0.5,1-0.7,1.2c0,0-0.3,0.3-0.7,0.7
		c-0.3,0.3-0.6,0.5-0.9,0.5c-0.5-0.4-0.7-1.3-0.7-2.5c0.4-0.4,0.7-0.6,1-0.6c0.6-0.3,0.8-0.7,0.7-1.1c0.2-0.3,0.3-0.6,0.3-1.1
		c-0.1-0.8-0.1-1.3-0.1-1.3c0.1-0.2,0.1-0.4,0.1-0.6c0-0.2-0.1-0.5-0.2-0.9c-0.1-0.5-0.1-0.8-0.1-1.1c0.4-0.5,1.1-1.1,2.2-1.8
		c1.1-0.6,1.8-1.2,2.2-1.7c-0.1-0.3-0.4-0.5-0.7-0.7c-1.6,1.5-2.8,2.6-3.5,3.5c-1.4,0.6-2.3,1.8-2.7,3.6c-0.2,1.6-0.4,3.1-0.6,4.7
		c-0.8,0.9-1.3,1.6-1.8,2h-0.5c-0.9-0.6-1.3-1.3-1.2-2.3c0.1-0.3,0.4-0.5,0.8-0.6c0.4-0.1,0.7-0.3,0.8-0.4c0.2-0.9,0.5-2.2,0.7-4
		c0.2-1.8,0.5-3.2,0.7-4c-0.1,0.4-0.2,0.8-0.4,1.3c-0.1,0.5-0.4,0.9-0.7,1.2c0-0.9,0-1.5,0-1.9c-1,1.8-1.6,3.2-2,4.1
		c-0.5,0.5-0.9,0.9-1.1,1.3c0.6-1.4,1.1-2.5,1.3-3.3c0.1-0.6,0.2-1.1,0.3-1.7c0.1-0.7,0-1.3-0.1-1.8c-0.1,0.2-0.4,0.7-0.8,1.6
		c-0.3,0.7-0.7,1.1-1.2,1.3C674.1,36.7,674.5,36.2,674.7,35.9 M678.8,34.5l-0.5,0.6v0.2L678.8,34.5z"/>
	<path class="st1" d="M399.9,4.5c-0.3,0-0.5,0-0.7,0.1c-0.1,0-0.2,0.1-0.3,0.1c-0.2,0-0.4,0.1-0.6,0.2c-0.1,0-0.1,0.1-0.2,0.1
		c0,0-0.5,0.3-0.7,0.5c-0.2,0.2-0.7,0.7-0.7,0.7c0,0,0,0.1-0.1,0.1c-0.1,0.1-0.1,0.1-0.3,0.5c-0.2,0.3-0.4,0.9-0.4,1.2
		c0,0.1-0.1,0.3-0.1,0.4c0,0.1,0,0.4,0,0.6c0,0.2,0,0.4,0,0.4c-2.8,0.1-5.4,0.2-8.4,0.3c0.3,0.4,0.6,0.6,0.9,1l-6.2,0.2l1.8,1.4
		c1.6,0,3.5-0.1,4.5-0.1c0.4,0,1.3,0,1.3,0c-0.4,0.3-0.8,0.6-1.2,0.9c-0.7,0.4-1.3,0.9-2,1.3c-0.8,0.6-1.7,1.2-2.5,1.7
		c-1.3,0.9-2,1.4-2.2,1.5c-1.5,0.9-2.4,2.5-2.6,4.1c-0.1,0.4-0.1,0.9-0.2,1c-0.1,0.3-0.1,0.3-0.1,0.5c0,0.1,0,0.2-0.1,0.3
		c-0.1,0.4-0.1,0.6-0.1,0.6c0,0,0,0,0,0.1c0,0-1,0-2.2,0c-4.2,0-4.1,0-5,0.2c-0.6,0.1-2,0.4-2.4,0.6c-0.1,0-0.1,0.1-0.1,0.1
		c0,0-0.1,0-0.2,0.1c-0.1,0-0.2,0.1-0.2,0.1c0,0-0.1,0-0.8,0.4c-0.3,0.1-0.6,0.3-0.8,0.4c-0.2,0.1-0.4,0.2-0.5,0.3h-2.6
		c-0.1-0.1-0.2-0.1-0.4-0.1c-0.3,0-0.5,0.6-0.5,1.3c0,0.7,0.2,1.3,0.5,1.3c0.1,0,0.1-0.1,0.4-0.1c0,0,0.1,0,0.1,0
		c-0.1,0.1-0.2,0.3-0.3,0.4c-0.1,0.1-0.1,0.2-0.2,0.2c0,0-0.1,0.1-0.1,0.1c0,0-0.1,0.1-0.3,0.4c-0.1,0.1-0.1,0.2-0.2,0.4
		c-0.1,0.1-0.1,0.2-0.1,0.2c0,0-0.1,0.1-0.1,0.2c0,0.1-0.1,0.2-0.1,0.2c-0.1,0.1-0.3,0.8-0.5,1.1c-0.1,0.2-0.1,0.4-0.2,0.4
		c-0.1,0.1-0.3,0.8-0.3,1.1c-0.2,0.7-0.2,1-0.3,1.4c0,0.1,0,0.2,0,0.3c0,0,0,0.2,0,0.4c0,0.2,0,0.4,0,0.4c0,0,0,0.1,0,0.2
		c0,0.1,0,0.1,0.1,0c0,0,0.2-0.1,0.3-0.2c0.1-0.1,0.3-0.1,0.3-0.2c0.1,0,0.9-0.5,1.5-0.8c0,0,0,0,0.1,0c0,0.3-0.1,0.7-0.1,1
		c0,0.8,0.1,1.6,0.3,2.3c-0.4,0-0.9,0-1.4-0.1c0.2,0.4,0.6,1.1,0.1,1.7c0.5,0.6-0.2,1.2-0.2,1.3c0.8-0.3,1.4-0.3,2.5-0.2
		c1.7,2.9,4.8,4.9,8.4,4.9c2.9,0,5.6-1.3,7.4-3.4c0.1,0,0.2,0,0.5,0.1c0.4,0,1.2,0.3,2,0.3c0.2,0,0.5,0,0.7,0c0.5,0,0.9,0,1.4-0.1
		c0.6,0,1.8-0.1,2.1-0.1c0.9,0,1.1-0.1,1.4-0.1c0.1,0,0.5,0,0.7,0c0.2,0,0.6,0,0.7,0c0.1,0,0.4,0,0.6,0c0.2,0,0.6,0,1,0
		c0.3,0,0.8,0,1,0c1,0,1.4-0.1,1.5-0.1c0.1,0,0.4,0,0.7,0c0.3,0,0.7,0,1-0.1c0.3,0,0.6,0,0.7,0c0.5,0,1.3-0.2,1.9-0.5
		c0.5-0.3,1.1-0.7,1.5-1.2c0.5-0.6,0.9-1.5,1.1-2.3c0-0.1,0.1-0.3,0.1-0.3c0,0,0,0,0,0.1c0.2,0.9,0.6,2,0.9,2.7
		c0.3,0.6,0.9,1.5,0.9,1.5c0,0,0.6-0.4,0.9-0.6c0.1-0.1,0.2-0.1,0.2-0.1c0,0,0.1,0,0.1,0.1c0,0.1,0.1,0.1,0.1,0.2
		c0,0,0.1,0.1,0.2,0.2c0.5,0.6,1.4,1.5,1.9,1.8c0,0,0.1,0.1,0.3,0.2c0.1,0.1,0.3,0.2,0.3,0.2c0.1,0,0.2,0.1,0.3,0.2
		c0.3,0.2,1,0.5,1,0.5c0,0,0.1,0,0.1,0c0.2,0.1,1.5,0.5,1.8,0.6c0.1,0,0.2,0,0.3,0c0.1,0,0.3,0,0.4,0c0.5,0.1,1,0.1,1.3,0.1
		c0.3,0,1.1-0.1,1.3-0.1c0.3-0.1,0.6-0.1,0.7-0.1c0.2-0.1,1-0.3,1-0.3c0,0,0.1,0,0.2-0.1c0.3-0.1,0.8-0.4,1.3-0.6
		c0.1,0,0.2-0.1,0.2-0.1c0,0,0.1,0,0.1,0c0,0,0,0,0.1,0c0,0,0.1,0,0.1-0.1c0,0,0.5-0.3,0.6-0.4c0.3-0.2,1-0.8,1.4-1.3
		c0.4-0.4,1-1.2,1.2-1.7c0.2-0.4,0.2-0.4,0.3-0.5c0-0.1,0.1-0.2,0.2-0.3c0.4-0.9,0.7-1.9,0.9-3c0.1-0.5,0.1-0.8,0.1-1.4
		c0-0.7,0-1-0.1-1.6c-0.1-0.6-0.4-1.8-0.6-2.2c0-0.1-0.1-0.1-0.1-0.1c0-0.1-0.4-0.9-0.6-1.2l-0.2-0.3l0.1-0.1
		c0.1-0.1,0.5-0.4,0.8-0.6c0.2-0.2,0.2-0.2,0.2-0.3c-0.4-0.6-1.3-1.6-1.9-2.1c-0.3-0.3-1.4-1.1-1.4-1.1c0,0-0.1-0.1-0.3-0.2
		c-0.6-0.4-1.7-0.9-2.4-1c-1.4-0.4-2.9-0.6-4.2-0.4c-0.3,0-0.6,0-0.6,0c0,0,0-0.5,0-1.6c0-0.2,0-0.5,0-0.5c0,0,0.5,0,1.2,0
		c0.4,0,0.4,0,0.3-0.3c0.1-1.7,0.1-3.6-0.1-5.6c0,0-0.3,0-0.7,0c-0.4,0-0.9,0-1.1,0.1c-0.7,0-1.5,0.1-2,0.4
		c-0.2,0.1-0.6,0.5-0.9,0.8c-0.1,0.2-0.4,0.7-0.4,0.9c-0.1,0.2-0.1,0.7-0.1,1c0,0.3,0,0.3-0.1,0.3c-0.1-0.1-0.5-0.1-0.7-0.1
		c-0.2,0-0.6,0.1-0.8,0.2c-0.3,0.2-0.4,0.3-0.5,0.2c0,0-0.3-0.1-0.5-0.1c-0.3,0-0.6-0.1-0.7-0.1c-0.1,0-0.4-0.1-0.5-0.1
		c-0.4-0.1-0.8-0.1-0.9-0.2c0,0-0.2,0-0.3,0c-0.1,0-0.6-0.1-1-0.2c-0.7-0.1-0.9-0.2-1-0.2c0,0-0.3,0-0.5-0.1c-0.3,0-0.6-0.1-0.8-0.1
		c-0.2,0-0.6-0.1-1-0.2c-0.8-0.1-0.8-0.1-0.8-0.2c0,0,0.1-0.2,0.4-0.5c0.1-0.1,0.2-0.3,0.3-0.4c0.1-0.1,0.1-0.2,0.2-0.3
		c0-0.1,0.3-0.4,0.5-0.7c0.5-0.7,0.6-0.8,0.8-1c0.1-0.1,0.1-0.2,0.2-0.2c0,0,0.1-0.1,0.1-0.2c0-0.1,0.1-0.2,0.2-0.3
		c0.3-0.4,0.7-0.9,0.8-1c0.1-0.1,0.1-0.2,0.2-0.2c0,0,0.1-0.1,0.1-0.1c0.1-0.1,0.1-0.1,0.5-0.6c0.3-0.4,0.4-0.4,0.8-0.6
		c0.1,0,0.3-0.1,0.3-0.1c0,0,0.1,0,0.2-0.1c0.1,0,0.3-0.1,0.4-0.1c0.1,0,0.2-0.1,0.3-0.1c0.3-0.1,0.1-0.5,0.2-0.8
		c0-0.7,0-0.8,0.2-0.8c0.1-0.1,0.2-0.1,0.4-0.2c0.1,0,0.3-0.1,0.4-0.1c0.1,0,0.1-0.1-0.2-1.3c0-0.2-0.1-0.4-0.1-0.4l0-0.1l0.2,0
		c0.1,0,0.2,0,0.2,0c0,0,0-0.1-0.1-0.5c-0.1-0.5-0.3-1-0.5-1.4c-0.1-0.1-0.1-0.2-0.1-0.2c0-0.1-0.3-0.4-0.5-0.7
		c-0.7-0.8-1.8-1.2-2.9-1.2C400.1,4.5,400,4.5,399.9,4.5 M392.3,22.9c0.2,0,0.5,0,0.8,0c0.6,0,1.8,0,2.7,0c0.9,0,1.7,0,1.9,0
		c0.1,0,0.3,0,0.3,0c0,0-0.4,0.4-1.2,1c-0.3,0.2-0.8,0.6-1.2,0.9c-0.1,0.1-0.2,0.2-0.3,0.2c-0.1,0-0.1,0.1-0.1,0.1
		c0,0-0.1-0.1-0.3-0.2c-0.1-0.1-0.3-0.2-0.4-0.3c-0.1,0-0.2-0.1-0.3-0.2c-0.2-0.1-0.9-0.7-1.5-1.1c-0.4-0.3-0.6-0.5-0.6-0.5
		C392,22.9,392.1,22.9,392.3,22.9 M408.3,23.6c0.1,0,0.2,0.3,0.3,0.9c0.1,0.5,0.1,0.5-0.3,0.6c-0.4,0.2-0.9,0.4-1.2,0.5
		c-0.5,0.3-1.4,0.8-1.6,1c0,0-0.1,0.1-0.1,0.1c-0.1,0-1,0.8-1.3,1.2c-1,1-1.7,2.2-2.2,3.4c-0.1,0.2-0.1,0.3-0.2,0.4
		c-0.1,0.2-0.3,0.8-0.4,1.1c-0.2,0.9-0.4,1.9-0.4,2.8c0,0.2,0,0.3,0,0.3c0,0,0,0-0.1-0.1c-0.2-0.7-0.9-1.7-1.6-2.2
		c-0.2-0.1-0.3-0.2-0.3-0.2c0,0,0-0.1,0.1-0.1c0-0.1,0.2-0.2,0.3-0.4c0.2-0.3,0.4-0.5,0.7-0.9c0.1-0.2,0.4-0.6,0.8-1.1
		c0.1-0.1,0.2-0.3,0.3-0.4c0.1-0.1,0.1-0.2,0.2-0.2c0,0,0.1-0.2,0.2-0.3c0.2-0.2,0.8-1,1-1.3c0.2-0.3,0.8-1.1,1.1-1.4
		c0.2-0.2,0.3-0.4,0.4-0.5c0.2-0.2,0.2-0.3,0.4-0.5c0.1-0.1,0.4-0.5,0.9-1.1c0.1-0.2,0.2-0.2,0.3-0.3c0.1,0,0.3-0.1,0.4-0.2
		c0.2-0.1,0.3-0.1,0.3-0.1c0,0,0.4-0.2,0.8-0.4C407.7,23.9,408.3,23.6,408.3,23.6 M412,29.1c0.4,0,1,0,1.3,0.1
		c0.4,0.1,1.1,0.3,1.4,0.4c0.3,0.1,0.9,0.4,1,0.6l0.1,0.1l-0.1,0.1c0,0.1-0.3,0.4-0.5,0.6c-0.2,0.3-0.4,0.6-0.5,0.6
		c-0.1,0.1-1.1,1.4-1.2,1.5c0,0-0.1,0.1-0.2,0.2c-0.1,0.1-0.1,0.2-0.1,0.2c0,0-0.1,0-0.3-0.1c-0.1-0.1-0.3-0.1-0.4-0.1
		c-0.1,0-0.2,0-0.2-0.1c0,0-0.1-0.5-0.2-0.7c0-0.1-0.5-2.2-0.6-2.3c0-0.1-0.1-0.4-0.1-0.6c-0.1-0.3-0.1-0.4-0.1-0.5
		C411.6,29.1,411.7,29.1,412,29.1 M409.6,29.6c0.1,0,0.1,0,0.4,1.1c0.2,0.6,0.3,1.2,0.3,1.3c0.1,0.3,0.4,1.5,0.4,1.6
		c0,0.1,0,0.1-0.2,0.3c-0.4,0.4-0.6,0.7-0.7,1.2c-0.1,0.5-0.1,1,0,1.5c0,0.1,0.1,0.2,0,0.2c0,0-0.1,0.1-0.2,0.1
		c-0.1,0.1-0.3,0.1-0.3,0.2c-0.1,0-0.2,0.1-0.4,0.2c-0.1,0.1-0.4,0.2-0.6,0.3c-0.2,0.1-0.6,0.4-1,0.6c-0.4,0.2-0.7,0.4-0.8,0.5
		c-0.2,0.1-0.2,0.1-0.4-0.2c-0.3-0.6-0.4-1.2-0.5-1.9c-0.1-0.4-0.1-0.6-0.1-1c0-0.3,0-0.6,0-0.6c0,0,0-0.1,0-0.2
		c0.1-0.4,0.2-1.1,0.5-1.6c0.4-1,1.3-2.1,2-2.7c0.3-0.2,0.6-0.4,0.7-0.5c0,0,0.1-0.1,0.2-0.1C409.2,29.8,409.5,29.6,409.6,29.6
		 M373.2,29.6c0.5,0,1,0,1.3,0.1c0.5,0.1,1.1,0.3,1.1,0.3c0,0-0.1,0.2-0.2,0.4c-0.1,0.2-0.2,0.5-0.3,0.7c-0.1,0.2-0.2,0.5-0.3,0.6
		c-0.1,0.2-0.2,0.4-0.2,0.5c-0.2,0.5-0.3,0.6-0.3,0.6c0,0-0.2,0-0.3-0.1c-1.2-0.3-2.5,0.2-3.3,1.1c-0.1,0.1-0.4,0.5-0.4,0.6
		c0,0,0,0.1-0.1,0.1c-0.2,0.4-0.4,1.2-0.4,1.8c0,0.5,0.1,0.9,0.2,1.2c0,0.1,0,0.2,0,0.2c0,0-0.2,0-0.4,0.1c-0.2,0-0.5,0.1-0.7,0.1
		c-0.2,0-0.4,0.1-0.5,0.1c-0.1,0-0.4,0-0.7,0.1c-0.2,0-0.3,0-0.4,0.1c-0.2-0.7-0.4-1.4-0.4-2.2c0-2,0.9-3.7,2.2-4.9c0,0,0,0,0,0
		c0.2-0.2,0.5-0.4,0.6-0.5c0.3-0.2,1-0.5,1.2-0.6c0.2,0,0.3-0.1,0.4-0.1c0.2-0.1,0.9-0.2,1.1-0.2C372.9,29.7,373.1,29.7,373.2,29.6
		 M376.9,30.7c0.1,0,1,0.7,1.4,1.1c0.1,0.1,0.2,0.2,0.3,0.3c0.2,0.2,0.3,0.5,0.5,0.8c0,0,0,0,0,0c0,0-0.7,0-1.6,0
		c-1.3,0-1.6,0-1.6,0c0,0,0-0.2,0.1-0.3c0.1-0.1,0.2-0.4,0.3-0.6c0.1-0.2,0.2-0.4,0.2-0.5C376.7,31,376.8,30.7,376.9,30.7
		 M416.5,30.7C416.5,30.7,416.5,30.7,416.5,30.7c0.2,0.1,0.9,0.8,1.1,1.2c0.2,0.4,0.5,0.8,0.5,1c0,0.1,0.1,0.3,0.1,0.3
		c0.1,0.2,0.3,0.9,0.3,1.3c0.1,0.5,0.1,0.7,0,1.4c0,0.6-0.1,0.9-0.1,1.1c-0.2,0.7-0.4,1.2-0.8,1.9c-0.2,0.4-0.9,1.3-1.3,1.6
		c-0.1,0.1-0.2,0.2-0.2,0.2c-0.8,0.7-2,1.3-3.1,1.5c-0.3,0-1.3,0.1-1.3,0.1c0,0-0.2,0-0.4,0c-0.2,0-0.4,0-0.6-0.1
		c-1.4-0.3-2.6-0.9-3.6-1.9c-0.4-0.4-0.8-0.9-0.8-1c0,0,0.7-0.4,1.2-0.7c0.1-0.1,0.4-0.2,0.6-0.3c0.2-0.1,0.4-0.2,0.5-0.3
		c0.4-0.2,0.6-0.3,0.8-0.5c0.1-0.1,0.2-0.1,0.2-0.1c0,0,0,0,0.1,0c0.1-0.1,0.2-0.1,0.4,0.1c1,0.9,2.5,0.9,3.4-0.1
		c0.3-0.3,0.4-0.4,0.5-0.7c0.2-0.3,0.2-0.9,0.2-1.3c0-0.1,0-0.2-0.1-0.3c0,0,0-0.1,0-0.1c0,0,0,0,0-0.1c0-0.1-0.2-0.5-0.4-0.7
		l-0.1-0.2l0.2-0.3c0.7-0.9,1-1.3,1.4-1.9c0.2-0.3,0.4-0.6,0.5-0.7C416.4,30.8,416.4,30.7,416.5,30.7 M376.8,37c0,0,0.2,0,0.4,0.1
		c0.4,0.1,0.8,0.3,1.1,0.4c0.1,0,0.2,0.1,0.2,0.1c0,0,0.2,0.1,0.3,0.1c0.2,0.1,0.4,0.1,0.5,0.2c-0.1,0.4-0.3,0.8-0.5,1.1
		c-0.6-0.2-1.7-0.6-2.2-0.8c-0.2-0.1-0.3-0.1-0.3-0.1c0,0,0-0.1,0.1-0.3c0.1-0.1,0.2-0.4,0.2-0.5C376.8,37.1,376.8,37,376.8,37
		 M370.5,41.6l5,0.4c-0.7,0.2-1.4,0.4-2.1,0.4C372.4,42.3,371.4,42,370.5,41.6"/>
	<path class="st0" d="M183.3,11.4h-23.2l0-1.5c0-0.9-0.7-1.6-1.6-1.6h-7.6c-0.9,0-1.8,0.7-1.8,1.6l0,1.6l-3.1-0.1
		c-2.2,0-4.7,1.7-4.7,3.9v22.7c0,2.2,1.7,3.8,3.9,3.8h38.2c2.2,0,3.6-1.6,3.6-3.8V15.3C186.9,13.2,185.4,11.4,183.3,11.4 M146,40.2
		c0,0-3.2-0.9-3.2-2.4V15.5c0-1.3,1.9-2.5,3.2-2.5V40.2z M158.2,18.6c-1.1,0-2-0.9-2-2c0-1.1,0.9-2,2-2c1.1,0,2,0.9,2,2
		C160.2,17.5,159.3,18.6,158.2,18.6 M166.5,39.1c-5.3,0-9.6-4.3-9.6-9.7c0-5.3,4.3-9.7,9.6-9.7c5.3,0,9.6,4.3,9.6,9.7
		C176,34.8,171.8,39.1,166.5,39.1 M166.5,36.7c-3.9,0-7.1-3.2-7.1-7.2c0-4,3.2-7.2,7.1-7.2c3.9,0,7.1,3.2,7.1,7.2
		C173.6,33.4,170.4,36.7,166.5,36.7"/>
	<path class="st1" d="M535.7,11.3c0,0-2.4-0.9-4.8,1.8c-2.3,2.7-3,6.7-4.3,9.3c-1.3,2.6-3.9,3.6-1.8,5.8c2.1,2.2,4.3,3.8,9.3,5.3
		c5,1.5,5.4,1.3,9.1-0.5c0,0,1.1-0.6,2.2,0.9c1.1,1.5,1.2,3.5,5.9,4.9c4.7,1.4,10.8,4.6,18.9,2.5c8.1-2.1,6-7.2,4.2-7.8
		c-1.8-0.6-8.4-2.1-10.4-4c-1.9-1.8-3.3-3.4-3.3-3.4s0-0.8-0.6-1c-0.6-0.2-0.6,0.1-1-0.1c-0.4-0.2-1.1-1.7-1.1-1.9
		c0.1-0.2-0.4-0.8-0.8-0.9c-0.4-0.1-0.7,0.4-0.7,0c0-0.4-0.9-1.8-0.9-1.8s0.6-0.9,0.3-1.5c-0.3-0.6-0.7-1.3-1.4-1.3
		c-0.6,0-0.9,0-1.1-0.3c-0.3-0.3,0.2-0.8-0.1-1.2c-0.2-0.4-1.7-2.7-2.2-3.3c-0.5-0.6-1.1-0.3-1.7,0.7c-0.5,1-0.6,2.3-0.6,2.3
		s-0.8,0.5-4.1,0.8c-3.3,0.3-4.6,0.4-6.5-0.6C536.3,15.1,536.4,11.6,535.7,11.3"/>
</g>
</svg>
