<?xml version="1.0" encoding="utf-8"?>
<!-- Generator: Adobe Illustrator 19.0.0, SVG Export Plug-In . SVG Version: 6.00 Build 0)  -->
<svg version="1.1" id="Calque_1" xmlns="http://www.w3.org/2000/svg" xmlns:xlink="http://www.w3.org/1999/xlink" x="0px" y="0px" width="285" height="108"
	 viewBox="0 0 285 108" style="enable-background:new 0 0 285 108;" xml:space="preserve">
<style type="text/css">
	.st0{fill:#E9E5CC;}
</style>
<g>
	<path id="XMLID_79_" class="st0" d="M216,32.6h4.2v4.1H216V32.6z"/>
	<path id="XMLID_78_" class="st0" d="M97.7,32.6h4.2v4.1h-4.2V32.6z"/>
	<path id="XMLID_77_" class="st0" d="M67.9,59.1c0-2,0-10.2,0-12.2s1.1-3,2.1-4.1c1.1-1,2.1-2,4.2-2h4.2v2h-4.2
		c-1.1,0-4.2,2-4.2,4.1v12.2c0,2,3.2,4.1,4.2,4.1h4.2v2h-4.2c-2.1,0-3.2-1-4.2-2C69,62.1,67.9,61.1,67.9,59.1"/>
	<path id="XMLID_76_" class="st0" d="M50.9,40.8h6.4c2.1,0,3.2,1,4.2,2c1.1,1,2.1,2,2.1,4.1v18.3h-2.1V46.9c0-1-2.1-4.1-4.2-4.1
		h-4.2v22.4H51L50.9,40.8L50.9,40.8z"/>
	<path id="XMLID_75_" class="st0" d="M106.1,65.2V40.8h8.5c2.1,0,3.2,1,4.2,2c1.1,1,2.1,2,2.1,4.1v18.3h-4.2V46.9c0-1-1.1-2-2.1-2
		h-4.2v20.3C110.4,65.2,106.1,65.2,106.1,65.2z"/>
	<path id="XMLID_74_" class="st0" d="M188.4,59.1c0-2,0-10.2,0-12.2s1.1-3,2.1-4.1c1.1-1,2.1-2,4.2-2h4.2v4.1h-4.2
		c-1.1,0-2.1,1-2.1,2v12.2c0,1,1.1,2,2.1,2h4.2v4.1h-4.2c-2.1,0-3.2-1-4.2-2C189.5,62.1,188.4,61.1,188.4,59.1"/>
	<path id="XMLID_73_" class="st0" d="M157.1,65.2c0,0,0-16.3,0-18.3s1.1-3,2.1-4.1c1.1-1,2.1-2,4.2-2h3.7v4.1h-3.7
		c-1.1,0-2.1,1-2.1,2v18.3H157.1z"/>
	<path class="st0" d="M142.2,46.9c0-1,1.1-2,2.1-2h2.1c1.1,0,2.1,1,2.1,2V51h-6.4L142.2,46.9L142.2,46.9z M152.8,55v-8.1
		c0-2-1.1-3.1-2.1-4.1c-1.1-1-2.1-2-4.2-2h-2.1c-2.1,0-3.2,1-4.2,2c-1.1,1-2.1,2-2.1,4.1c0,2,0,10.2,0,12.2s1.1,3.1,2.1,4.1
		c1.1,1,2.1,2,4.2,2h2.1c2.1,0,3.2-1,4.2-2c1.1-1,2.1-2,2.1-4.1v-2h-4.2v2c0,1-1.1,2-2.1,2h-2.1c-1.1,0-2.1-1-2.1-2V55
		C142.3,55,152.8,55,152.8,55z"/>
	<path class="st0" d="M245.7,46.9c0-1,1.1-2,2.1-2h2.1c1.1,0,2.1,1,2.1,2V51h-6.4L245.7,46.9L245.7,46.9z M256.3,55v-8.1
		c0-2-1.1-3.1-2.1-4.1c-1.1-1-2.1-2-4.2-2h-2.1c-2.1,0-3.2,1-4.2,2c-1.1,1-2.1,2-2.1,4.1c0,2,0,10.2,0,12.2s1.1,3.1,2.1,4.1
		c1.1,1,2.1,2,4.2,2h2.1c2.1,0,3.2-1,4.2-2c1.1-1,2.1-2,2.1-4.1v-2h-4.2v2c0,1-1.1,2-2.1,2h-2.1c-1.1,0-2.1-1-2.1-2V55L256.3,55
		L256.3,55z"/>
	<path class="st0" d="M179.9,61.1h-4.2c-1.1,0-2.1-1-2.1-2V46.9c0-1,1.1-2,2.1-2h4.2C179.9,44.9,179.9,61.1,179.9,61.1z M175.7,40.8
		c-2.1,0-3.2,1-4.2,2c-1.1,1-2.1,2-2.1,4.1c0,2,0,10.2,0,12.2s1.1,3.1,2.1,4.1c1.1,1,2.1,2,4.2,2h8.5V40.8L175.7,40.8L175.7,40.8z"
		/>
	<path id="XMLID_66_" class="st0" d="M209.6,34.7v6.1h4.2v4.1h-4.2v20.3h-4.2V44.8h-4.2v-4.1h4.2v-6.1h4.2V34.7z"/>
	<path id="XMLID_65_" class="st0" d="M131.6,34.7v6.1h4.2v4.1h-4.2v20.3h-4.2V44.8h-4.2v-4.1h4.2v-6.1h4.2
		C131.6,34.6,131.6,34.7,131.6,34.7z"/>
	<path id="XMLID_64_" class="st0" d="M216,40.8h4.2v24.4H216V40.8z"/>
	<path id="XMLID_63_" class="st0" d="M97.7,40.8h4.2v24.4h-4.2V40.8z"/>
	<path id="XMLID_62_" class="st0" d="M222.4,40.8l6.4,24.4h4.2l6.4-24.4h-4.2L231,57.1l-4.2-16.3H222.4z"/>
	<path class="st0" d="M82.8,46.9c0-2,3.2-4.1,4.2-4.1c1.1,0,4.2,2,4.2,4.1V53h-8.5v-6.1H82.8z M93.4,55v-8.1c0-2-1.1-3.1-2.1-4.1
		c-1.1-1-2.1-2-4.2-2s-3.2,1-4.2,2c-1.1,1-2.1,2-2.1,4.1v12.2c0,2,1.1,3.1,2.1,4.1c1.1,1,2.1,2,4.2,2s3.2-1,4.2-2
		c1.1-1,2.1-2,2.1-4.1h-2.1c0,2-3.2,4.1-4.2,4.1c-1.1,0-4.2-2-4.2-4.1V55C82.9,55,93.4,55,93.4,55z"/>
	<path class="st0" d="M36.1,46.9c0-2,3.2-4.1,4.2-4.1c1.1,0,4.2,2,4.2,4.1V53H36L36.1,46.9L36.1,46.9z M46.7,55v-8.1
		c0-2-1.1-3.1-2.1-4.1c-1.1-1-2.1-2-4.2-2s-3.2,1-4.2,2c-1.1,1-2.1,2-2.1,4.1v12.2c0,2,1.1,3.1,2.1,4.1c1.1,1,2.1,2,4.2,2
		s3.2-1,4.2-2c1.1-1,2.1-2,2.1-4.1h-2.1c0,2-3.2,4.1-4.2,4.1c-1.1,0-4.2-2-4.2-4.1V55C36.2,55,46.7,55,46.7,55z"/>
	<path class="st0" d="M27.6,63.2h-4.2c-1.1,0-4.2-2-4.2-4.1V46.9c0-2,3.2-4.1,4.2-4.1h4.2C27.6,42.8,27.6,63.2,27.6,63.2z
		 M29.7,40.8h-6.4c-2.1,0-3.2,1-4.2,2c-1.1,1-2.1,2-2.1,4.1c0,1.6,0,10.2,0,12.2s1.1,3.1,2.1,4.1c1.1,1,2.1,2,4.2,2h4.2v4.1
		c0,2-3.2,4.1-4.2,4.1c-1.1,0-4.2-2-4.2-4.1v-2H17v2c0,2,1.1,3,2.1,4.1c1.1,1,2.1,2,4.2,2s3.2-1,4.2-2c1.1-1,2.1-2,2.1-4.1
		L29.7,40.8"/>
	<path class="st0" d="M10.6,63.2H6.4c-1.1,0-4.2-2-4.2-4.1V46.9c0-2,3.2-4.1,4.2-4.1h4.2V63.2z M12.7,40.8H6.4c-2.1,0-3.2,1-4.2,2
		c-1.1,1-2.1,2-2.1,4.1C0,48.5,0,57,0,59.1c0,2,1.1,3.1,2.1,4.1c1.1,1,2.1,2,4.2,2h6.4L12.7,40.8L12.7,40.8z"/>
	<path id="XMLID_53_" class="st0" d="M279.7,24.5l-30.8,59h5.3l30.8-59L279.7,24.5L279.7,24.5z"/>
</g>
</svg>
