<?xml version="1.0" encoding="utf-8"?>
<!-- Generator: Adobe Illustrator 16.0.0, SVG Export Plug-In . SVG Version: 6.00 Build 0)  -->
<!DOCTYPE svg PUBLIC "-//W3C//DTD SVG 1.1//EN" "http://www.w3.org/Graphics/SVG/1.1/DTD/svg11.dtd">
<svg version="1.1" id="Layer_1" xmlns="http://www.w3.org/2000/svg" xmlns:xlink="http://www.w3.org/1999/xlink" x="0px" y="0px"
	 width="20px" height="20px" viewBox="6 5.999 20 20" enable-background="new 6 5.999 20 20" xml:space="preserve">
<path fill="#264763" d="M19.77,15.999l5.451-5.45c1.039-1.04,1.039-2.729,0-3.771c-1.041-1.039-2.729-1.039-3.77,0L16,12.229
	l-5.451-5.45c-1.042-1.039-2.729-1.039-3.77,0c-1.039,1.041-1.039,2.729,0,3.771l5.452,5.45l-5.452,5.445
	c-1.039,1.046-1.039,2.736,0,3.775c0.523,0.521,1.201,0.779,1.885,0.779c0.686,0,1.37-0.256,1.885-0.779L16,19.772l5.451,5.447
	c0.516,0.523,1.199,0.779,1.885,0.779c0.684,0,1.361-0.258,1.885-0.779c1.039-1.039,1.039-2.729,0-3.775L19.77,15.999z"/>
</svg>
