<?xml version="1.0" encoding="UTF-8" standalone="no"?><!DOCTYPE svg PUBLIC "-//W3C//DTD SVG 1.1//EN" "http://www.w3.org/Graphics/SVG/1.1/DTD/svg11.dtd"><svg width="100%" height="100%" viewBox="0 0 370 108" version="1.1" xmlns="http://www.w3.org/2000/svg" xmlns:xlink="http://www.w3.org/1999/xlink" xml:space="preserve" xmlns:serif="http://www.serif.com/" style="fill-rule:evenodd;clip-rule:evenodd;stroke-linejoin:round;stroke-miterlimit:2;"><rect id="lm" x="0" y="0" width="370" height="108" style="fill:none;"/><clipPath id="_clip1"><rect x="0" y="0" width="370" height="108"/></clipPath><g clip-path="url(#_clip1)"><g id="logo"><g id="Group"><path id="Shape" d="M166.793,38.389l7.945,0l0,31.21l-7.945,0l0,-4.736c-2.03,3.41 -5.279,5.115 -9.743,5.115c-3.262,0.112 -6.417,-1.165 -8.678,-3.516c-2.375,-2.683 -3.591,-6.197 -3.38,-9.776l0,-18.267l7.886,0l0,17.157c-0.136,2.048 0.53,4.068 1.858,5.633c1.331,1.348 3.177,2.062 5.068,1.963c1.902,0.097 3.756,-0.617 5.102,-1.963c1.345,-1.555 2.023,-3.581 1.887,-5.633l0,-17.187Z" style="fill:#e9e5cc;fill-rule:nonzero;"/><rect id="Rectangle-path" x="131.122" y="27.912" width="7.947" height="41.684" style="fill:#e9e5cc;"/><path id="Shape1" serif:id="Shape" d="M188.304,38.389l0,4.673c1.984,-3.419 5.741,-5.41 9.683,-5.13c2.219,-0.039 4.407,0.524 6.333,1.628c1.87,1.092 3.374,2.714 4.324,4.659c2.176,-3.953 6.36,-6.378 10.87,-6.303c3.35,-0.146 6.608,1.118 8.983,3.487c2.401,2.68 3.629,6.212 3.41,9.805l0,18.391l-7.917,0l0,-17.236c0.138,-2.038 -0.53,-4.05 -1.857,-5.601c-1.338,-1.34 -3.181,-2.046 -5.069,-1.949c-1.9,-0.095 -3.749,0.611 -5.101,1.949c-1.346,1.543 -2.026,3.559 -1.888,5.601l0,17.236l-7.856,0l0,-17.236c0.138,-2.038 -0.529,-4.05 -1.857,-5.601c-1.338,-1.34 -3.181,-2.046 -5.069,-1.949c-1.9,-0.095 -3.749,0.611 -5.101,1.949c-1.348,1.543 -2.028,3.559 -1.888,5.601l0,17.236l-7.947,0l0,-31.21l7.947,0Z" style="fill:#e9e5cc;fill-rule:nonzero;"/><path id="Shape2" serif:id="Shape" d="M239.809,65.533c-2.852,-3.165 -4.36,-7.314 -4.202,-11.571c-0.17,-4.238 1.328,-8.375 4.172,-11.524c2.728,-2.975 6.621,-4.612 10.657,-4.476c3.989,-0.158 7.748,1.872 9.804,5.298l0,-4.871l7.901,0l0,31.21l-7.886,0l0,-5.238c-1.984,3.618 -5.816,5.832 -9.941,5.739c-4.001,0.085 -7.839,-1.583 -10.505,-4.567m17.888,-4.795c1.719,-1.807 2.617,-4.24 2.483,-6.729c0.138,-2.495 -0.76,-4.937 -2.483,-6.746c-1.522,-1.554 -3.609,-2.431 -5.785,-2.431c-2.176,0 -4.263,0.877 -5.786,2.431c-1.705,1.801 -2.592,4.225 -2.45,6.699c-0.134,2.499 0.764,4.941 2.481,6.76c1.508,1.577 3.595,2.47 5.777,2.47c2.182,0 4.271,-0.893 5.779,-2.47" style="fill:#e9e5cc;fill-rule:nonzero;"/><path id="Shape3" serif:id="Shape" d="M344.263,47.523c-0.009,-2.693 1.27,-5.227 3.44,-6.82c5.538,-3.67 12.732,-3.67 18.269,0c2.276,1.786 3.624,4.504 3.671,7.399l-8.116,0c-0.223,-2.629 -1.837,-3.944 -4.841,-3.944c-1.228,-0.073 -2.446,0.241 -3.486,0.899c-0.806,0.564 -1.268,1.498 -1.234,2.481c0.051,1.13 0.788,2.113 1.857,2.482c1.454,0.668 2.991,1.145 4.568,1.415c1.766,0.335 3.522,0.757 5.267,1.265c1.708,0.479 3.252,1.41 4.476,2.693c1.281,1.405 1.949,3.262 1.858,5.162c0.034,2.743 -1.31,5.323 -3.577,6.866c-5.578,3.53 -12.693,3.53 -18.269,0c-2.377,-1.777 -3.806,-4.541 -3.883,-7.505l8.115,0c0.305,2.629 1.973,3.942 5.008,3.942c1.259,0.057 2.501,-0.288 3.548,-0.989c0.863,-0.576 1.372,-1.552 1.354,-2.588c-0.049,-1.143 -0.783,-2.139 -1.857,-2.527c-1.45,-0.684 -2.986,-1.165 -4.567,-1.431c-1.766,-0.335 -3.518,-0.747 -5.268,-1.234c-1.699,-0.459 -3.244,-1.364 -4.476,-2.619c-1.269,-1.325 -1.941,-3.114 -1.857,-4.947" style="fill:#e9e5cc;fill-rule:nonzero;"/><path id="Shape4" serif:id="Shape" d="M317.529,80.057l0,-15.696c1.944,3.597 5.73,5.81 9.82,5.739c3.999,0.085 7.838,-1.583 10.505,-4.567c2.84,-3.169 4.336,-7.318 4.172,-11.571c0.17,-4.248 -1.328,-8.396 -4.172,-11.554c-2.732,-2.974 -6.623,-4.61 -10.657,-4.476c-3.976,-0.166 -7.722,1.87 -9.746,5.296l0,-4.839l-7.945,0l0,41.668l8.023,0Zm2.375,-32.794c1.518,-1.556 3.601,-2.435 5.777,-2.435c2.176,0 4.259,0.879 5.779,2.435c1.703,1.801 2.588,4.225 2.45,6.699c0.142,2.493 -0.745,4.937 -2.45,6.76c-1.51,1.573 -3.597,2.462 -5.779,2.462c-2.18,0 -4.267,-0.889 -5.777,-2.462c-1.699,-1.817 -2.584,-4.247 -2.453,-6.729c-0.131,-2.483 0.754,-4.913 2.453,-6.73Z" style="fill:#e9e5cc;fill-rule:nonzero;"/><path id="Shape5" serif:id="Shape" d="M282.208,80.057l0,-15.696c1.945,3.597 5.731,5.81 9.821,5.739c3.999,0.085 7.837,-1.583 10.505,-4.567c2.842,-3.169 4.338,-7.318 4.171,-11.571c0.171,-4.248 -1.325,-8.396 -4.171,-11.554c-2.731,-2.976 -6.624,-4.612 -10.657,-4.476c-3.977,-0.166 -7.722,1.87 -9.744,5.296l0,-4.839l-7.902,0l0,41.668l7.977,0Zm2.452,-32.794c1.515,-1.556 3.595,-2.435 5.769,-2.435c2.174,0 4.255,0.879 5.771,2.435c1.703,1.801 2.591,4.225 2.45,6.699c0.143,2.493 -0.745,4.937 -2.45,6.76c-1.508,1.573 -3.593,2.462 -5.771,2.462c-2.178,0 -4.263,-0.889 -5.769,-2.462c-1.699,-1.817 -2.586,-4.247 -2.452,-6.729c-0.134,-2.483 0.753,-4.913 2.452,-6.73Z" style="fill:#e9e5cc;fill-rule:nonzero;"/><path id="Shape6" serif:id="Shape" d="M98.101,63.919l-13.824,8.069l-13.84,-8.069c-0.278,-0.156 -0.617,-0.154 -0.891,0.006c-0.276,0.158 -0.446,0.453 -0.448,0.769l0,9.486c-0.004,0.319 0.164,0.617 0.44,0.776l14.723,8.619l14.737,-8.603c0.276,-0.161 0.447,-0.457 0.441,-0.778l0,-9.5c-0.002,-0.316 -0.171,-0.611 -0.447,-0.769c-0.276,-0.16 -0.615,-0.162 -0.891,-0.006" style="fill:#e9e5cc;fill-rule:nonzero;"/><path id="Shape7" serif:id="Shape" d="M113.417,33.013l-14.814,-8.464c-0.277,-0.165 -0.622,-0.165 -0.898,0l-8.221,4.736c-0.264,0.162 -0.422,0.45 -0.422,0.761c0,0.308 0.158,0.597 0.422,0.761l13.929,7.961l-0.091,16.016c0.002,0.319 0.173,0.611 0.449,0.772c0.274,0.16 0.613,0.162 0.891,0.004l8.191,-4.72c0.276,-0.158 0.446,-0.457 0.442,-0.775l0.106,-17.052l0.016,0Z" style="fill:#e9e5cc;fill-rule:nonzero;"/><path id="Shape8" serif:id="Shape" d="M78.918,29.299l-8.206,-4.75c-0.279,-0.161 -0.622,-0.161 -0.898,0l-14.814,8.434l0.077,17.051c-0.006,0.319 0.165,0.617 0.441,0.778l8.207,4.748c0.276,0.158 0.615,0.156 0.891,-0.004c0.276,-0.161 0.444,-0.453 0.446,-0.772l0,-16.03l13.917,-7.917c0.262,-0.164 0.421,-0.452 0.421,-0.761c0,-0.31 -0.159,-0.599 -0.421,-0.761" style="fill:#e9e5cc;fill-rule:nonzero;"/><path id="Shape9" serif:id="Shape" d="M96.41,56.398l0,-13.245c-0.004,-0.29 -0.16,-0.556 -0.41,-0.7l-11.388,-6.652c-0.255,-0.149 -0.568,-0.149 -0.824,0l-11.402,6.652c-0.252,0.144 -0.406,0.41 -0.41,0.7l0,13.245c0.004,0.29 0.158,0.556 0.41,0.7l11.402,6.654c0.254,0.149 0.571,0.149 0.824,0l11.402,-6.654c0.248,-0.146 0.398,-0.412 0.396,-0.7" style="fill:#e9e5cc;fill-rule:nonzero;"/><path id="Shape10" serif:id="Shape" d="M84.2,49.807l-11.601,-6.762c-0.126,-0.069 -0.278,-0.067 -0.404,0.004c-0.123,0.073 -0.201,0.203 -0.205,0.347l0,13.002c-0.002,0.288 0.149,0.554 0.396,0.7l11.205,6.533c0.126,0.069 0.278,0.067 0.404,-0.004c0.124,-0.073 0.201,-0.203 0.205,-0.348l0,-13.472Z" style="fill:#e9e5cc;fill-opacity:0.1;fill-rule:nonzero;"/><path id="Shape11" serif:id="Shape" d="M84.2,49.807l11.601,-6.762c0.126,-0.069 0.278,-0.067 0.404,0.004c0.124,0.073 0.201,0.203 0.205,0.347l0,13.002c0.002,0.288 -0.148,0.554 -0.396,0.7l-11.205,6.547c-0.126,0.069 -0.278,0.067 -0.404,-0.004c-0.124,-0.071 -0.201,-0.203 -0.205,-0.345l0,-13.489Z" style="fill:#e9e5cc;fill-opacity:0.1;fill-rule:nonzero;"/><path id="Shape12" serif:id="Shape" d="M95.801,56.581l-11.615,-6.776l-11.603,6.776c-0.12,0.075 -0.195,0.207 -0.195,0.351c0,0.142 0.075,0.274 0.195,0.349l11.207,6.532c0.254,0.147 0.567,0.147 0.822,0l11.205,-6.532c0.12,-0.075 0.195,-0.207 0.195,-0.349c0,-0.144 -0.075,-0.276 -0.195,-0.351" style="fill:#e9e5cc;fill-opacity:0.2;fill-rule:nonzero;"/><path id="Shape13" serif:id="Shape" d="M95.801,42.331l-11.205,-6.53c-0.25,-0.147 -0.558,-0.147 -0.808,0l-11.203,6.53c-0.122,0.075 -0.197,0.207 -0.197,0.351c0,0.142 0.075,0.274 0.197,0.349l11.601,6.776l11.615,-6.776c0.122,-0.075 0.195,-0.207 0.195,-0.349c0,-0.144 -0.073,-0.276 -0.195,-0.351" style="fill:#e9e5cc;fill-rule:nonzero;"/></g></g></g></svg>