<?xml version="1.0" encoding="utf-8"?>
<!-- Generator: Adobe Illustrator 19.0.0, SVG Export Plug-In . SVG Version: 6.00 Build 0)  -->
<svg version="1.1" id="Calque_1" xmlns="http://www.w3.org/2000/svg" xmlns:xlink="http://www.w3.org/1999/xlink" x="0px" y="0px" width="182.8" height="108"
	 viewBox="0 0 182.8 108" style="enable-background:new 0 0 182.8 108;" xml:space="preserve">
<style type="text/css">
	.st0{fill:#E9E5CC;}
</style>
<g>
	<path id="XMLID_98_" class="st0" d="M167.5,74.5c0,0,0.7,1.1,2.7,1.5l0.6-0.9l-0.1-0.7c0,0,0.7,0.1,0.9-0.1
		c0.2-0.2,0.1-0.8,0.1-0.8s0.6,0.1,0.7-0.3c0.2-0.4-0.1-0.7-0.1-0.7s0.5-0.1,0.8-0.3c0.3-0.2,0-0.7,0-0.7h0.5l0.4-0.7h0.5
		c0,0,0.4,0.1,0.6-0.4c0.2-0.6,5.7-9.1,5.7-9.1s0.1-0.2-0.4-0.5c-0.5-0.2-1.1-0.7-1.1-0.7l1.7-2.8c0,0,0.2,0.1,0.3-0.1
		c0.1-0.1,0-0.3-0.1-0.4l0.5-1c0,0,0.2,0,0.3-0.2s-0.1-0.4-0.1-0.4l0.8-1.3c0,0,0.3-0.7-0.1-0.9c-0.4-0.2-0.7,0.1-0.8,0.4
		c-0.2,0.3-0.9,1.4-0.9,1.4s-0.4,0.1-0.4,0.2c-0.1,0.1-0.1,0.2,0,0.4l-0.6,0.9c0,0-0.2-0.1-0.4,0.1c-0.1,0.3,0.1,0.4,0.1,0.4
		l-1.8,2.6l-1.3-0.5c0,0-0.2-0.1-0.3,0.1l-5.6,9.4c0,0-0.2,0.3,0.1,0.5l0.4,0.1v0.2l-0.5,0.6c0,0-0.4,0.4-0.1,0.8c0,0-0.4,0-0.7,0.2
		c-0.3,0.3-0.1,0.7,0,0.8c0,0-0.5-0.1-0.8,0.3s0.1,0.7,0.1,0.7s-0.6-0.1-0.8,0.2c-0.2,0.3,0.1,0.7,0.1,0.7l-0.6,0.2L167.5,74.5z"/>
	<path id="XMLID_97_" class="st0" d="M0.1,65.1l7.6-24c0.2-0.6,0.6-1,1.2-1.1l3.3-0.7h0.4c0.4,0,0.7,0.3,0.7,0.8
		c0,0.2,0,0.3-0.1,0.5l-5.1,16c3.6-6.1,6.6-10.6,9-13.2c2.6-3,5.1-4.4,7.3-4.4c3,0,4.4,1.3,4.4,3.8c0,1.4-1.2,6.1-3.7,14
		c7.4-11.7,13.2-17.5,17.4-17.5c2.7,0,4.1,1.5,4.1,4.5c0,1.2-0.4,3-1.2,5.2c-1.6,4.6-2.5,6.9-2.6,7c-1,3.1-1.5,5-1.5,5.8
		c0,1.2,0.6,1.7,1.8,1.7c1.4,0,3.5-1.6,6.3-4.8c2.4-2.6,6.1-7.3,11-14.1c0.1,0.2,0.1,0.5,0.1,1.1c0,1.2-1.4,3.6-4.1,7.2
		c-3.9,5.1-6.9,8.5-8.7,10.2c-2.6,2.4-5,3.6-7.4,3.6c-1.2,0-2.2-0.4-3-1.2c-0.8-0.8-1.2-1.8-1.2-3.1c0-2.1,0.9-5.6,2.8-10.5
		c1.9-4.9,2.8-7.7,2.8-8.3c0-1.1-0.6-1.6-1.7-1.6c-2.5,0-6.8,4.9-12.9,14.7c-0.9,1.5-2.2,3.8-3.7,6.9c-0.8,1.6-1.5,2.5-2.1,2.6
		l-2.8,0.5h-0.2c-0.6,0-0.9-0.1-0.9-0.4c0-0.4,0.1-0.8,0.2-1.1L23,46.1c0.4-1.3,0.6-2.2,0.6-2.7c0-1.1-0.4-1.6-1.3-1.6
		c-2.4,0-6.4,4.7-12,14.1c-1.2,2-2.5,4.5-4,7.6c-0.8,1.7-1.5,2.7-1.9,2.7l-3.5,0.6H0.6c-0.4,0-0.6-0.2-0.6-0.6
		C0,65.7,0,65.4,0.1,65.1"/>
	<path id="XMLID_96_" class="st0" d="M55.6,57.9l5.6-16.6c0.2-0.5,0.3-0.9,0.5-1.1s0.5-0.3,1-0.4l3.4-0.6h0.4c0.4,0,0.6,0.2,0.6,0.6
		c-0.1,0.4-0.2,0.6-0.2,0.7l-6.6,18.3c-0.4,1.7-0.7,2.8-0.7,3.4c0,1.1,0.5,1.6,1.6,1.6c1.2,0,3.2-1.4,5.9-4.2
		c3-3.2,6.3-7.4,9.9-12.7c0.5-0.8,1.3-2.4,2.6-4.8c0.7-1.3,1.4-2.1,2.1-2.2l3-0.7H85c0.5,0,0.7,0.2,0.7,0.7l-0.2,0.7l-6.3,18.1
		c-0.5,1.4-0.7,2.6-0.7,3.5c0,1.1,0.5,1.7,1.6,1.7c2.6,0,8.5-6.6,17.5-19.8c0.3,0.4,0.4,0.7,0.4,1c0,1.2-1.6,4-4.9,8.4
		C86.5,62.5,81.3,67,77.7,67c-2.9,0-4.4-1.6-4.4-4.7c0-1.8,1.3-6.2,4-13.2C68.9,61,62.7,66.9,58.6,66.9c-2.8,0-4.2-1.4-4.2-4.2
		C54.4,61.8,54.8,60.2,55.6,57.9"/>
	<path id="XMLID_95_" class="st0" d="M94.3,54.1l3.5-11.4h-4.5l-0.1-0.5l0.2-1.1l0.5-0.4h4.6l3.4-10.3c0.3-1.1,0.9-1.7,1.6-1.8
		l2.9-0.6h0.4c0.3,0,0.4,0.2,0.4,0.6v0.6l-3.4,11.6h4.3l0.1,0.4l-0.2,1.2l-0.3,0.4h-4.4L98.4,59c-0.4,1.3-0.6,2.5-0.6,3.6
		c0,1.2,0.7,1.8,2,1.8c3.5,0,9.6-6.6,18.4-19.8c0.2,0.3,0.2,0.6,0.2,1.1c0,1.3-1.3,3.6-3.9,7.1C107.3,62.3,101.8,67,98,67
		c-3.6,0-5.4-1.7-5.4-5C92.6,60.3,93.2,57.7,94.3,54.1"/>
	<path class="st0" d="M146.3,49.7c-0.5,0.8-1.2,1.8-2,2.8c-7.3,9.8-14.8,14.7-22.4,14.7c-2.9,0-5.2-0.9-7-2.7
		c-1.8-1.8-2.6-4.2-2.6-7.2c0-4.2,1.9-8.5,5.7-12.7c3.5-3.9,7.3-5.9,11.3-5.9c2,0,3.7,0.5,4.9,1.5c1.3,1,1.9,2.3,1.9,3.8
		c0,2.5-1.5,5-4.6,7.5c-3.3,2.7-7.8,4.9-13.5,6.6c0,4.5,2,6.7,6.1,6.7c3.3,0,6.9-1.7,10.9-5.1c3.3-2.8,6.3-6.7,10.1-11.1 M118,56.4
		c3.9-0.9,7.2-2.6,9.7-5.1c2.4-2.4,3.5-4.9,3.5-7.7c0-2.1-0.9-3.1-2.7-3.1c-2.1,0-4.1,1.4-6.1,4.1C120.2,47.6,118.7,51.6,118,56.4"
		/>
	<path id="XMLID_92_" class="st0" d="M134.3,62.8c0.3-0.2,7-6.1,10.8-11.1c2.3-3.1,5.1-4.9,7.1-4.5c2,0.4,3,2.9,3.5,4.9
		c0.8,3.2,1,7.4,1.2,11.4c0.4,7.8,0.8,15.2,5.1,16.3c4,1,7.5-3.9,7.7-4.1l-1.6-1.1c-0.8,1.1-3.3,3.9-5.6,3.3
		c-2.9-0.7-3.3-8.1-3.6-14.6c-0.2-4.1-0.4-8.4-1.3-11.8c-0.9-3.8-2.6-5.9-5-6.4c-3.3-0.6-6.9,2.3-9,5.2
		c-3.7,4.9-10.5,10.8-10.5,10.8L134.3,62.8z"/>
</g>
</svg>
